<svg width="40" height="37" viewBox="0 0 40 37" fill="none" xmlns="http://www.w3.org/2000/svg">
<path d="M16.0869 25.4229C16.2118 25.4229 16.3135 25.5245 16.3135 25.6494V29.3506C16.3135 29.4755 16.2118 29.5771 16.0869 29.5771H0.226563C0.101678 29.5771 1.38713e-05 29.4755 0 29.3506L0 25.6494C0 25.5245 0.101669 25.4229 0.226563 25.4229H16.0869ZM4.01758 7.42285C4.14247 7.42285 4.24414 7.52452 4.24414 7.64941V16.0986C4.24419 17.2402 4.64228 18.1741 5.51758 18.8486C6.36618 19.5749 7.45306 19.8866 8.11621 19.8867C8.5141 19.8867 8.99242 19.7826 9.44336 19.627C9.94711 19.4194 10.451 19.1604 10.8223 18.8232C11.1936 18.486 11.5389 18.0967 11.7246 17.6816C11.9633 17.2146 12.043 16.7212 12.043 16.1504V7.64941C12.043 7.52454 12.1437 7.42289 12.2686 7.42285L16.0869 7.42285C16.2118 7.42285 16.3134 7.52459 16.3135 7.64941V16.1504C16.3134 21.1322 11.8298 24.0381 8.11621 24.0381C4.721 24.0378 0.000120103 21.3655 0 16.0986L0 7.64941C0.00011711 7.52475 0.100938 7.42306 0.225586 7.42285H4.01758Z" fill="#0E73F6"/>
<path d="M25.6573 17.66H36.1273V20.96H25.6573V17.66ZM25.9873 29H22.0873V8H37.4173V11.27H25.9873V29Z" fill="white"/>
</svg>
